<svg viewBox="0 0 251 41" fill="none" xmlns="http://www.w3.org/2000/svg">
<g clip-path="url(#clip0_90_586)">
<path fill-rule="evenodd" clip-rule="evenodd" d="M53.8415 25.1243H56.651L55.2626 13.4927L53.8415 25.1243Z" fill="#EBEBEB"/>
<path fill-rule="evenodd" clip-rule="evenodd" d="M98.8569 31.9377H91.1047V8.67829H98.7912V11.9015H94.5605V18.4812H98.6299V21.7035H94.5605V28.7145H98.8569V31.9377ZM79.9688 11.9015H76.8675V31.9377H73.4117V11.9015H70.3113V8.67829H79.9679L79.9688 11.9015ZM57.4898 31.9377L57.0376 28.2823H53.4514L53.0321 31.9377H49.8342L53.0639 8.64541H57.6511L60.9137 31.9377H57.4898ZM40.4215 11.9015H37.3203V31.9377H33.8635V11.9015H30.7641V8.67829H40.4215V11.9015ZM20.6507 27.8171C20.6507 30.7086 19.2624 32.1379 16.4519 32.1379H14.9341C12.1236 32.1379 10.7672 30.7086 10.7672 27.851V22.9335H14.1255V27.7185C14.1255 28.6149 14.5467 29.0462 15.451 29.0462H15.9031C16.8084 29.0462 17.2268 28.6149 17.2268 27.7185V24.5272C17.2268 23.5641 16.9041 23.1318 16.2587 22.6338L12.769 20.0092C11.2193 18.8787 10.7672 17.783 10.7672 15.9882V12.7998C10.7672 9.90837 12.1555 8.47907 14.966 8.47907H16.42C19.1967 8.47907 20.586 9.90837 20.586 12.766V16.9852H17.1949V12.8985C17.1949 12.0011 16.7756 11.5698 15.9041 11.5698H15.4838C14.6114 11.5698 14.1921 12.0011 14.1921 12.8985V15.4902C14.1921 16.4533 14.5148 16.9185 15.1611 17.3836L18.6479 20.0092C20.1676 21.1387 20.6517 22.1357 20.6517 24.0292L20.6507 27.8171ZM0 40.616H109.624V0H0V40.616Z" fill="#EBEBEB"/>
<path fill-rule="evenodd" clip-rule="evenodd" d="M127.507 25.1242H130.317L128.929 13.4945L127.507 25.1242ZM134.58 31.9361H131.157L130.704 28.2807H127.12L126.699 31.9361H123.503L126.732 8.64282H131.319L134.58 31.9361ZM153.275 8.6815V11.9047H149.205V18.616H153.114V21.8401H149.205V31.9409H145.749V8.6815H153.275ZM172.091 8.6815V11.9047H168.022V18.616H171.931V21.8401H168.022V31.9409H164.566V8.6815H172.091ZM186.307 25.1242H189.117L187.727 13.4945L186.307 25.1242ZM193.38 31.9361H189.957L189.504 28.2807H185.918L185.499 31.9361H182.301L185.531 8.64282H190.117L193.38 31.9361Z" fill="#EBEBEB"/>
<path fill-rule="evenodd" clip-rule="evenodd" d="M204.559 31.9405H208.015V8.6811H204.559V31.9405ZM225.298 11.8375H223.617V19.513H225.167C226.136 19.513 226.589 19.0488 226.589 18.0847V13.1672C226.589 12.2698 226.17 11.8375 225.298 11.8375ZM230.077 24.032V31.9405H226.622V24.0978C226.622 23.0679 226.17 22.6027 225.167 22.6027H223.617V31.9405H220.162V8.6811H225.846C228.657 8.6811 230.045 10.1094 230.045 13.0009V17.3865C230.045 19.4472 229.335 20.4423 228.074 20.9752C229.496 21.3736 230.077 22.271 230.077 24.032ZM250.468 24.0262V27.8151C250.468 30.7046 249.079 32.1349 246.268 32.1349H244.75C241.94 32.1349 240.583 30.7056 240.583 27.849V22.9305H243.943V27.7155C243.943 28.612 244.362 29.0442 245.268 29.0442H245.72C246.624 29.0442 247.044 28.612 247.044 27.7155V24.5242C247.044 23.5611 246.72 23.1298 246.075 22.6308L242.585 20.0062C241.036 18.8767 240.583 17.7801 240.583 15.9862V12.7959C240.583 9.90441 241.973 8.47705 244.783 8.47705H246.235C249.013 8.47705 250.402 9.90538 250.402 12.763V16.9822H247.012V12.8955C247.012 11.9981 246.591 11.5668 245.72 11.5668H245.299C244.427 11.5668 244.007 11.9981 244.007 12.8955V15.4872C244.007 16.4513 244.331 16.9155 244.976 17.3807L248.465 20.0062C249.983 21.1357 250.468 22.1327 250.468 24.0262Z" fill="#EBEBEB"/>
</g>
<defs>
<clipPath id="clip0_90_586">
<rect width="250.465" height="40.616" fill="white"/>
</clipPath>
</defs>
</svg>
